HIERARCHY
ROOT Hips
{
	OFFSET -338.882294 -555.210510 88.995560
	CHANNELS 6 Xposition Yposition Zposition Zrotation Yrotation Xrotation
	JOINT Spine
	{
		OFFSET 0.000000 2.080078 8.814247
		CHANNELS 6 Xposition Yposition Zposition Zrotation Yrotation Xrotation
		JOINT Spine1
		{
			OFFSET 0.000000 0.000000 8.844139
			CHANNELS 6 Xposition Yposition Zposition Zrotation Yrotation Xrotation
			JOINT Spine2
			{
				OFFSET 0.000000 0.000000 11.682266
				CHANNELS 6 Xposition Yposition Zposition Zrotation Yrotation Xrotation
				JOINT Spine3
				{
					OFFSET 0.000000 0.000000 11.746704
					CHANNELS 6 Xposition Yposition Zposition Zrotation Yrotation Xrotation
					JOINT Neck
					{
						OFFSET 0.000000 0.000000 17.658264
						CHANNELS 6 Xposition Yposition Zposition Zrotation Yrotation Xrotation
						JOINT Neck1
						{
							OFFSET 0.000000 0.000000 5.101517
							CHANNELS 6 Xposition Yposition Zposition Zrotation Yrotation Xrotation
							JOINT Head
							{
								OFFSET 0.000000 0.000000 5.101517
								CHANNELS 6 Xposition Yposition Zposition Zrotation Yrotation Xrotation
								JOINT HeadEnd
								{
									OFFSET 0.000000 0.000000 11.655090
									CHANNELS 6 Xposition Yposition Zposition Zrotation Yrotation Xrotation
									End Site
									{
										OFFSET 0.000000 0.000000 0.100006
									}
								}
							}
						}
					}
					JOINT RightShoulder
					{
						OFFSET -2.625397 0.000000 11.175217
						CHANNELS 6 Xposition Yposition Zposition Zrotation Yrotation Xrotation
						JOINT RightArm
						{
							OFFSET 0.000000 0.000000 10.434723
							CHANNELS 6 Xposition Yposition Zposition Zrotation Yrotation Xrotation
							JOINT RightForeArm
							{
								OFFSET 0.000000 0.000000 29.628418
								CHANNELS 6 Xposition Yposition Zposition Zrotation Yrotation Xrotation
								JOINT RightHand
								{
									OFFSET 0.000000 0.000000 22.857605
									CHANNELS 6 Xposition Yposition Zposition Zrotation Yrotation Xrotation
									JOINT RightHandThumb1
									{
										OFFSET -2.867310 -2.944275 3.959564
										CHANNELS 6 Xposition Yposition Zposition Zrotation Yrotation Xrotation
										JOINT RightHandThumb2
										{
											OFFSET 0.000000 0.000000 3.350403
											CHANNELS 6 Xposition Yposition Zposition Zrotation Yrotation Xrotation
											JOINT RightHandThumb3
											{
												OFFSET 0.000000 0.000000 3.756516
												CHANNELS 6 Xposition Yposition Zposition Zrotation Yrotation Xrotation
												JOINT RightHandThumb4
												{
													OFFSET 0.000000 0.000000 3.147339
													CHANNELS 6 Xposition Yposition Zposition Zrotation Yrotation Xrotation
													End Site
													{
														OFFSET 0.000000 0.000000 0.100006
													}
												}
											}
										}
									}
									JOINT RightHandIndex1
									{
										OFFSET -0.086761 -2.345276 10.030899
										CHANNELS 6 Xposition Yposition Zposition Zrotation Yrotation Xrotation
										JOINT RightHandIndex2
										{
											OFFSET 0.000000 0.000000 4.061096
											CHANNELS 6 Xposition Yposition Zposition Zrotation Yrotation Xrotation
											JOINT RightHandIndex3
											{
												OFFSET 0.000000 0.000000 3.248871
												CHANNELS 6 Xposition Yposition Zposition Zrotation Yrotation Xrotation
												JOINT RightHandIndex4
												{
													OFFSET 0.000000 0.000000 2.639709
													CHANNELS 6 Xposition Yposition Zposition Zrotation Yrotation Xrotation
													End Site
													{
														OFFSET 0.000000 0.000000 0.100006
													}
												}
											}
										}
									}
									JOINT RightHandMiddle1
									{
										OFFSET 0.104095 -0.006775 9.502945
										CHANNELS 6 Xposition Yposition Zposition Zrotation Yrotation Xrotation
										JOINT RightHandMiddle2
										{
											OFFSET 0.000000 0.000000 4.568726
											CHANNELS 6 Xposition Yposition Zposition Zrotation Yrotation Xrotation
											JOINT RightHandMiddle3
											{
												OFFSET 0.000000 0.000000 3.654984
												CHANNELS 6 Xposition Yposition Zposition Zrotation Yrotation Xrotation
												JOINT RightHandMiddle4
												{
													OFFSET 0.000000 0.000000 2.741241
													CHANNELS 6 Xposition Yposition Zposition Zrotation Yrotation Xrotation
													End Site
													{
														OFFSET 0.000000 0.000000 0.100006
													}
												}
											}
										}
									}
									JOINT RightHandRing1
									{
										OFFSET 0.086761 2.267456 8.921707
										CHANNELS 6 Xposition Yposition Zposition Zrotation Yrotation Xrotation
										JOINT RightHandRing2
										{
											OFFSET 0.000000 0.000000 4.061096
											CHANNELS 6 Xposition Yposition Zposition Zrotation Yrotation Xrotation
											JOINT RightHandRing3
											{
												OFFSET 0.000000 0.000000 3.654984
												CHANNELS 6 Xposition Yposition Zposition Zrotation Yrotation Xrotation
												JOINT RightHandRing4
												{
													OFFSET 0.000000 0.000000 2.741241
													CHANNELS 6 Xposition Yposition Zposition Zrotation Yrotation Xrotation
													End Site
													{
														OFFSET 0.000000 0.000000 0.100006
													}
												}
											}
										}
									}
									JOINT RightHandPinky1
									{
										OFFSET -0.173492 4.467224 7.976990
										CHANNELS 6 Xposition Yposition Zposition Zrotation Yrotation Xrotation
										JOINT RightHandPinky2
										{
											OFFSET 0.000000 0.000000 3.350403
											CHANNELS 6 Xposition Yposition Zposition Zrotation Yrotation Xrotation
											JOINT RightHandPinky3
											{
												OFFSET 0.000000 0.000000 2.842758
												CHANNELS 6 Xposition Yposition Zposition Zrotation Yrotation Xrotation
												JOINT RightHandPinky4
												{
													OFFSET 0.000000 0.000000 2.639709
													CHANNELS 6 Xposition Yposition Zposition Zrotation Yrotation Xrotation
													End Site
													{
														OFFSET 0.000000 0.000000 0.100006
													}
												}
											}
										}
									}
									JOINT RightForeArmEnd
									{
										OFFSET 0.000000 0.000000 0.000000
										CHANNELS 6 Xposition Yposition Zposition Zrotation Yrotation Xrotation
										End Site
										{
											OFFSET 0.000000 0.000000 0.100006
										}
									}
								}
								JOINT RightArmEnd
								{
									OFFSET 0.000000 0.000000 0.000000
									CHANNELS 6 Xposition Yposition Zposition Zrotation Yrotation Xrotation
									End Site
									{
										OFFSET 0.000000 0.000000 0.100006
									}
								}
							}
						}
					}
					JOINT LeftShoulder
					{
						OFFSET 2.625397 0.000000 11.175217
						CHANNELS 6 Xposition Yposition Zposition Zrotation Yrotation Xrotation
						JOINT LeftArm
						{
							OFFSET 0.000000 0.000000 10.813629
							CHANNELS 6 Xposition Yposition Zposition Zrotation Yrotation Xrotation
							JOINT LeftForeArm
							{
								OFFSET 0.000000 0.000000 28.724777
								CHANNELS 6 Xposition Yposition Zposition Zrotation Yrotation Xrotation
								JOINT LeftHand
								{
									OFFSET 0.644379 0.328857 25.716171
									CHANNELS 6 Xposition Yposition Zposition Zrotation Yrotation Xrotation
									JOINT LeftHandThumb1
									{
										OFFSET 2.867310 -2.944275 3.959564
										CHANNELS 6 Xposition Yposition Zposition Zrotation Yrotation Xrotation
										JOINT LeftHandThumb2
										{
											OFFSET 0.000000 0.000000 3.350403
											CHANNELS 6 Xposition Yposition Zposition Zrotation Yrotation Xrotation
											JOINT LeftHandThumb3
											{
												OFFSET 0.000000 0.000000 3.756516
												CHANNELS 6 Xposition Yposition Zposition Zrotation Yrotation Xrotation
												JOINT LeftHandThumb4
												{
													OFFSET 0.000000 0.000000 3.100006
													CHANNELS 6 Xposition Yposition Zposition Zrotation Yrotation Xrotation
													End Site
													{
														OFFSET 0.000000 0.000000 0.100006
													}
												}
											}
										}
									}
									JOINT LeftHandIndex1
									{
										OFFSET 0.086761 -2.345276 10.030899
										CHANNELS 6 Xposition Yposition Zposition Zrotation Yrotation Xrotation
										JOINT LeftHandIndex2
										{
											OFFSET 0.000000 0.000000 4.061096
											CHANNELS 6 Xposition Yposition Zposition Zrotation Yrotation Xrotation
											JOINT LeftHandIndex3
											{
												OFFSET 0.000000 0.000000 3.248871
												CHANNELS 6 Xposition Yposition Zposition Zrotation Yrotation Xrotation
												JOINT LeftHandIndex4
												{
													OFFSET 0.000000 0.000000 2.639709
													CHANNELS 6 Xposition Yposition Zposition Zrotation Yrotation Xrotation
													End Site
													{
														OFFSET 0.000000 0.000000 0.100006
													}
												}
											}
										}
									}
									JOINT LeftHandMiddle1
									{
										OFFSET -0.104095 -0.006775 9.502945
										CHANNELS 6 Xposition Yposition Zposition Zrotation Yrotation Xrotation
										JOINT LeftHandMiddle2
										{
											OFFSET 0.000000 0.000000 4.568726
											CHANNELS 6 Xposition Yposition Zposition Zrotation Yrotation Xrotation
											JOINT LeftHandMiddle3
											{
												OFFSET 0.000000 0.000000 3.654984
												CHANNELS 6 Xposition Yposition Zposition Zrotation Yrotation Xrotation
												JOINT LeftHandMiddle4
												{
													OFFSET 0.000000 0.000000 2.741241
													CHANNELS 6 Xposition Yposition Zposition Zrotation Yrotation Xrotation
													End Site
													{
														OFFSET 0.000000 0.000000 0.100006
													}
												}
											}
										}
									}
									JOINT LeftHandRing1
									{
										OFFSET -0.086761 2.267456 8.921707
										CHANNELS 6 Xposition Yposition Zposition Zrotation Yrotation Xrotation
										JOINT LeftHandRing2
										{
											OFFSET 0.000000 0.000000 4.061096
											CHANNELS 6 Xposition Yposition Zposition Zrotation Yrotation Xrotation
											JOINT LeftHandRing3
											{
												OFFSET 0.000000 0.000000 3.654984
												CHANNELS 6 Xposition Yposition Zposition Zrotation Yrotation Xrotation
												JOINT LeftHandRing4
												{
													OFFSET 0.000000 0.000000 2.741241
													CHANNELS 6 Xposition Yposition Zposition Zrotation Yrotation Xrotation
													End Site
													{
														OFFSET 0.000000 0.000000 0.100006
													}
												}
											}
										}
									}
									JOINT LeftHandPinky1
									{
										OFFSET 0.173492 4.467224 7.976990
										CHANNELS 6 Xposition Yposition Zposition Zrotation Yrotation Xrotation
										JOINT LeftHandPinky2
										{
											OFFSET 0.000000 0.000000 3.350403
											CHANNELS 6 Xposition Yposition Zposition Zrotation Yrotation Xrotation
											JOINT LeftHandPinky3
											{
												OFFSET 0.000000 0.000000 2.842758
												CHANNELS 6 Xposition Yposition Zposition Zrotation Yrotation Xrotation
												JOINT LeftHandPinky4
												{
													OFFSET 0.000000 0.000000 2.639709
													CHANNELS 6 Xposition Yposition Zposition Zrotation Yrotation Xrotation
													End Site
													{
														OFFSET 0.000000 0.000000 0.100006
													}
												}
											}
										}
									}
									JOINT LeftForeArmEnd
									{
										OFFSET 0.000000 0.000000 0.000000
										CHANNELS 6 Xposition Yposition Zposition Zrotation Yrotation Xrotation
										End Site
										{
											OFFSET 0.000000 0.000000 0.100006
										}
									}
								}
								JOINT LeftArmEnd
								{
									OFFSET 0.000000 0.000000 0.000000
									CHANNELS 6 Xposition Yposition Zposition Zrotation Yrotation Xrotation
									End Site
									{
										OFFSET 0.000000 0.000000 0.100006
									}
								}
							}
						}
					}
				}
			}
		}
	}
	JOINT RightUpLeg
	{
		OFFSET -11.289948 0.000000 0.000000
		CHANNELS 6 Xposition Yposition Zposition Zrotation Yrotation Xrotation
		JOINT RightLeg
		{
			OFFSET 0.000000 0.000000 -38.200321
			CHANNELS 6 Xposition Yposition Zposition Zrotation Yrotation Xrotation
			JOINT RightFoot
			{
				OFFSET 0.000000 0.000000 -39.900856
				CHANNELS 6 Xposition Yposition Zposition Zrotation Yrotation Xrotation
				JOINT RightToeBase
				{
					OFFSET 0.000000 -15.261658 0.000001
					CHANNELS 6 Xposition Yposition Zposition Zrotation Yrotation Xrotation
					JOINT RightToeBaseEnd
					{
						OFFSET 0.000000 -7.370728 0.000001
						CHANNELS 6 Xposition Yposition Zposition Zrotation Yrotation Xrotation
						End Site
						{
							OFFSET 0.000000 0.000000 0.100000
						}
					}
				}
				JOINT RightLegEnd
				{
					OFFSET 0.000000 0.000000 0.000000
					CHANNELS 6 Xposition Yposition Zposition Zrotation Yrotation Xrotation
					End Site
					{
						OFFSET 0.000000 0.000000 0.100000
					}
				}
			}
			JOINT RightUpLegEnd
			{
				OFFSET 0.000000 0.000000 0.000000
				CHANNELS 6 Xposition Yposition Zposition Zrotation Yrotation Xrotation
				End Site
				{
					OFFSET 0.000000 0.000000 0.099998
				}
			}
		}
	}
	JOINT LeftUpLeg
	{
		OFFSET 11.315674 0.000000 0.000000
		CHANNELS 6 Xposition Yposition Zposition Zrotation Yrotation Xrotation
		JOINT LeftLeg
		{
			OFFSET 0.000000 0.000000 -38.200321
			CHANNELS 6 Xposition Yposition Zposition Zrotation Yrotation Xrotation
			JOINT LeftFoot
			{
				OFFSET 0.000000 0.000000 -39.900856
				CHANNELS 6 Xposition Yposition Zposition Zrotation Yrotation Xrotation
				JOINT LeftToeBase
				{
					OFFSET 0.000000 -15.261658 0.000001
					CHANNELS 6 Xposition Yposition Zposition Zrotation Yrotation Xrotation
					JOINT LeftToeBaseEnd
					{
						OFFSET 0.000000 -7.539978 0.000001
						CHANNELS 6 Xposition Yposition Zposition Zrotation Yrotation Xrotation
						End Site
						{
							OFFSET 0.000000 0.000000 0.100000
						}
					}
				}
				JOINT LeftLegEnd
				{
					OFFSET 0.000000 0.000000 0.000000
					CHANNELS 6 Xposition Yposition Zposition Zrotation Yrotation Xrotation
					End Site
					{
						OFFSET 0.000000 0.000000 0.100000
					}
				}
			}
			JOINT LeftUpLegEnd
			{
				OFFSET 0.000000 0.000000 0.000000
				CHANNELS 6 Xposition Yposition Zposition Zrotation Yrotation Xrotation
				End Site
				{
					OFFSET 0.000000 0.000000 0.099998
				}
			}
		}
	}
}
MOTION
Frames: 2
Frame Time: 0.016667
27.489166 -4.043579 86.814247 -8.972341 5.280741 -8.129885 0.000010 2.079998 8.814245 -0.820711 -0.089349 8.584041 -0.000011 0.000007 8.844137 -0.650817 1.543419 4.245421 -0.000006 -0.000010 11.682276 -12.113988 -3.749423 6.652501 0.000007 -0.000056 11.746700 -5.304216 -6.262034 4.494091 -0.000010 -0.000002 17.658272 4.278451 8.542434 -5.709439 0.000004 -0.000013 5.101558 3.159224 1.578214 -8.618113 -0.000002 0.000018 5.101500 -1.841193 4.731037 -13.188715 0.000009 0.000009 11.655098 -0.000001 -0.000002 0.000001 -2.625395 0.000012 11.175221 11.791276 -88.751273 0.397918 0.000000 -0.000044 10.434708 -2.285206 -47.799269 30.127968 -0.000011 -0.000008 29.628407 19.766941 1.401148 89.078282 0.000019 -0.000010 22.857573 5.879680 -0.040912 7.222420 -2.867297 -2.944260 3.959564 32.323819 -25.818636 39.469368 0.000000 -0.000031 3.350388 -31.629626 10.703851 -53.453241 -0.000008 0.000000 3.756493 -20.999452 10.680975 -36.468456 0.000013 0.000002 3.147322 -0.000000 0.000001 0.000001 -0.086780 -2.345265 10.030916 -74.599415 -70.827757 75.612988 0.000004 -0.000036 4.061096 -7.002520 -58.620788 13.322433 0.000011 0.000004 3.248848 -7.502483 -58.620761 13.322404 0.000011 -0.000010 2.639741 0.000002 0.000000 -0.000000 0.104099 -0.006781 9.502937 -62.966462 -74.896924 67.197095 -0.000019 -0.000011 4.568710 -2.210706 -58.266868 4.854041 -0.000009 -0.000031 3.655025 -2.710671 -58.266800 4.855078 0.000002 -0.000008 2.741253 0.000001 -0.000000 0.000002 0.086741 2.267441 8.921687 -81.343660 -84.366121 91.405840 -0.000011 0.000010 4.061106 2.889498 -61.662374 -6.512101 0.000008 -0.000021 3.654997 3.889480 -61.662408 -6.512094 0.000005 -0.000001 2.741270 -0.000000 0.000001 0.000001 -0.173499 4.467209 7.976946 309.989392 -93.110341 -292.276335 0.000023 0.000000 3.350388 9.245492 -59.733822 -19.456627 0.000031 0.000004 2.842758 11.245503 -59.733829 -19.456632 -0.000006 -0.000004 2.639707 0.000001 -0.000001 -0.000000 -0.000009 -0.000003 -0.000009 0.000000 0.000000 -0.000001 -0.000014 0.000010 0.000007 -0.000002 0.000003 0.000001 2.625401 -0.000029 11.175226 -16.654139 81.637392 -0.288757 0.000000 -0.000027 10.813644 70.450403 37.899907 50.751345 -0.000023 0.000008 28.724829 -11.070153 -0.372356 61.865927 0.644348 0.328879 25.716194 -10.726191 -9.962403 6.027461 2.867289 -2.944305 3.959564 -32.727651 27.177451 37.651408 0.000008 0.000015 3.350380 34.514807 -10.148847 -58.095424 -0.000008 0.000023 3.756500 23.028208 -10.922383 -39.716075 0.000001 -0.000003 3.099991 -0.000000 0.000001 0.000001 0.086782 -2.345267 10.030902 37.959367 87.321066 27.262796 0.000015 0.000000 4.061089 -8.504260 61.582174 -15.054123 0.000019 0.000010 3.248878 -9.004273 61.582133 -15.054118 -0.000030 -0.000010 2.639716 0.000001 -0.000001 -0.000001 -0.104061 -0.006769 9.502919 67.789102 82.963043 61.490410 0.000031 -0.000012 4.568724 -2.751980 61.276591 -5.487704 0.000010 -0.000031 3.654980 -3.252005 61.276591 -5.487724 0.000007 0.000003 2.741234 -0.000000 0.000001 0.000002 -0.086748 2.267437 8.921711 108.815275 74.701861 108.199950 0.000036 0.000024 4.061069 4.188413 66.163298 7.957230 -0.000002 0.000001 3.654951 5.188447 66.163305 7.957252 -0.000008 -0.000002 2.741256 0.000000 0.000001 0.000000 0.173504 4.467236 7.976967 104.730883 66.319300 111.545663 -0.000008 -0.000034 3.350426 14.686327 65.753220 25.567411 -0.000008 0.000000 2.842751 16.686355 65.753207 25.567437 0.000014 -0.000011 2.639721 0.000001 0.000003 -0.000001 -0.000019 0.000008 0.000009 -0.000001 -0.000003 0.000002 0.000028 0.000001 0.000016 0.000000 -0.000000 0.000001 -11.289991 0.000010 0.000000 -8.251896 0.725139 -11.226717 -0.000022 -0.000007 -38.200317 0.453608 -0.472678 46.178813 0.000012 -0.000032 -39.900852 -19.239161 -1.384935 15.057852 0.000005 -15.261700 0.000031 -0.372882 1.236597 -21.058277 0.000017 -7.370733 -0.000000 0.000001 -0.000001 -0.000002 -0.000043 -0.000003 0.000002 0.000000 0.000001 0.000000 -0.000027 -0.000007 -0.000004 0.000001 0.000001 0.000001 11.315697 -0.000083 0.000004 12.678306 -7.086971 -9.132567 -0.000027 0.000007 -38.200291 -0.022338 0.018758 37.402270 -0.000005 -0.000051 -39.900875 13.004184 1.553886 8.282579 0.000011 -15.261656 0.000025 -0.352134 -0.731240 -21.713262 -0.000037 -7.539983 0.000002 0.000001 0.000000 -0.000000 -0.000043 -0.000000 -0.000001 0.000000 -0.000000 -0.000002 -0.000001 0.000004 -0.000004 -0.000000 0.000000 -0.000001 
27.285095 -3.873291 86.521767 -11.914930 4.723541 -8.488364 0.000011 2.080070 8.814254 -0.781505 -0.299830 8.778729 0.000005 0.000028 8.844143 -0.629886 1.312383 4.309286 -0.000015 -0.000014 11.682270 -10.790644 -3.070995 6.667329 -0.000040 0.000020 11.746687 -4.773024 -5.103928 4.393931 0.000000 -0.000021 17.658276 5.315073 10.081276 -5.853365 0.000011 0.000023 5.101541 3.492013 1.393538 -8.716525 -0.000010 0.000010 5.101534 -1.765586 4.624608 -12.980471 0.000019 -0.000009 11.655048 0.000002 -0.000001 0.000000 -2.625405 -0.000033 11.175221 13.162058 -87.300842 0.456716 0.000008 -0.000006 10.434746 -0.517687 -46.897677 31.694827 -0.000004 -0.000029 29.628399 21.295881 1.184697 87.613282 -0.000024 -0.000048 22.857628 4.420378 -0.721550 6.046661 -2.867310 -2.944260 3.959534 32.323812 -25.818643 39.469372 0.000000 -0.000015 3.350407 -31.629636 10.703924 -53.453265 -0.000023 0.000000 3.756477 -20.999441 10.680966 -36.468460 -0.000015 -0.000002 3.147316 0.000001 -0.000005 0.000002 -0.086773 -2.345275 10.030880 -71.935265 -70.567049 73.768147 -0.000011 -0.000015 4.061096 -6.758809 -58.074551 13.036115 0.000011 -0.000029 3.248878 -7.258801 -58.074558 13.036131 -0.000005 0.000006 2.639733 0.000000 -0.000001 -0.000000 0.104095 -0.006775 9.502916 -60.292286 -74.525533 65.161364 -0.000053 0.000026 4.568716 -2.126296 -57.735842 4.761914 0.000016 -0.000029 3.654984 -2.626303 -57.735835 4.761930 -0.000000 0.000002 2.741246 -0.000002 0.000000 0.000001 0.086741 2.267467 8.921716 -73.885100 -84.202504 84.492616 0.000002 -0.000018 4.061096 2.759113 -61.109040 -6.363585 -0.000004 -0.000019 3.655022 3.759123 -61.109054 -6.363588 0.000004 0.000005 2.741252 -0.000000 -0.000001 -0.000000 -0.173498 4.467210 7.976971 297.613909 -92.644283 -279.231575 0.000023 0.000029 3.350418 8.844199 -59.148721 -18.990608 0.000023 0.000004 2.842751 10.844216 -59.148687 -18.990634 0.000011 0.000005 2.639704 -0.000000 -0.000003 -0.000003 -0.000018 -0.000014 -0.000023 0.000003 -0.000000 -0.000001 0.000039 -0.000011 0.000013 0.000002 0.000001 -0.000001 2.625420 0.000013 11.175212 -16.212929 82.073759 -0.310674 -0.000053 -0.000021 10.813644 70.359964 37.502004 47.641112 -0.000004 0.000031 28.724775 -11.253105 -0.465676 65.209954 0.644344 0.328875 25.716148 -12.782007 -9.970320 6.706506 2.867283 -2.944275 3.959595 -32.727616 27.177468 37.651476 0.000015 0.000000 3.350430 34.514855 -10.148653 -58.095704 0.000008 0.000008 3.756516 23.027971 -10.922518 -39.715897 -0.000007 0.000000 3.100009 -0.000000 0.000000 -0.000000 0.086784 -2.345258 10.030912 48.015653 87.782534 37.343124 0.000027 0.000000 4.061104 -8.741403 61.995120 -15.323234 0.000023 0.000006 3.248871 -9.241435 61.995093 -15.323253 -0.000010 0.000013 2.639730 -0.000002 -0.000003 -0.000002 -0.104064 -0.006788 9.502946 72.705287 83.174260 66.605245 0.000021 -0.000001 4.568747 -2.838772 61.703908 -5.586466 0.000015 -0.000023 3.654989 -3.338758 61.703902 -5.586467 0.000004 -0.000010 2.741235 0.000000 -0.000001 -0.000000 -0.086740 2.267487 8.921728 110.738841 74.520485 110.414830 0.000000 -0.000060 4.061096 4.326809 66.556478 8.108295 0.000008 -0.000004 3.654987 5.326833 66.556478 8.108300 -0.000002 -0.000011 2.741263 0.000001 -0.000000 -0.000002 0.173519 4.467234 7.976986 105.722784 66.214606 112.747155 -0.000008 -0.000004 3.350410 15.028127 66.042527 25.941830 0.000023 0.000000 2.842766 17.028203 66.042158 25.941772 0.000002 0.000005 2.639716 0.000000 0.000002 -0.000004 0.000008 0.000005 0.000039 0.000000 0.000001 -0.000002 0.000034 0.000004 0.000000 0.000000 -0.000001 -0.000002 -11.289997 -0.000044 0.000001 -5.615413 2.294013 -12.948983 -0.000033 -0.000035 -38.200340 0.453825 -0.535173 49.701992 -0.000010 -0.000022 -39.900852 -18.298922 -1.371679 14.855738 0.000007 -15.261706 0.000021 -0.517591 1.294254 -20.991062 0.000013 -7.370773 0.000001 -0.000003 -0.000001 0.000000 -0.000022 -0.000037 0.000001 -0.000004 -0.000001 0.000001 -0.000042 0.000003 -0.000003 -0.000000 -0.000000 0.000000 11.315665 -0.000030 0.000011 14.534649 -7.049266 -9.015483 0.000026 -0.000024 -38.200314 -0.032742 0.025829 38.268327 0.000016 -0.000043 -39.900867 14.007157 2.269987 7.875256 -0.000006 -15.261741 0.000026 -0.494452 -0.647924 -21.616681 -0.000039 -7.539972 0.000003 -0.000001 -0.000000 0.000001 -0.000022 -0.000002 0.000001 0.000000 -0.000000 0.000000 -0.000003 0.000002 -0.000004 -0.000000 -0.000000 -0.000001 
